<?xml version="1.0" encoding="utf-8"?>
<!-- Generator: Adobe Illustrator 24.0.2, SVG Export Plug-In . SVG Version: 6.00 Build 0)  -->
<svg version="1.1" xmlns="http://www.w3.org/2000/svg" xmlns:xlink="http://www.w3.org/1999/xlink" x="0px" y="0px"
	 viewBox="0 0 19.07 18.01" enable-background="new 0 0 19.07 18.01" xml:space="preserve">
<g id="Capa_1" display="none">
</g>
<g id="Capa_2" display="none">
	<circle display="inline" cx="-88.97" cy="28.32" r="20"/>
</g>
<g id="Capa_3" display="none">
	<g display="inline">
		<path fill="#FFFFFF" d="M-102.4,38.02V19.13h2.67v8.39h0.04c0.42-1.49,1.1-3.15,1.68-4.53l1.56-3.85h3.01l-3.53,8.11l3.7,10.78
			h-3.01l-2.52-7.46l-0.93,2.04v5.42H-102.4z"/>
		<path fill="#3FA9F5" d="M-91.8,38.02V19.13h2.67v16.12h4.96v2.77H-91.8z"/>
		<path fill="#FFFFFF" d="M-82.27,38.02V19.13h2.67v8.39h0.04c0.42-1.49,1.11-3.15,1.68-4.53l1.56-3.85h3.01l-3.53,8.11l3.7,10.78
			h-3.01l-2.52-7.46l-0.93,2.04v5.42H-82.27z"/>
	</g>
</g>
<g id="Capa_4" display="none">
</g>
<g id="Capa_5" display="none">
	
		<circle display="inline" fill="none" stroke="#000000" stroke-width="0.75" stroke-miterlimit="10" cx="-21.47" cy="37.82" r="8.5"/>
</g>
<g id="Capa_7" display="none">
	
		<ellipse display="inline" fill="#7AC943" stroke="#000000" stroke-width="0.25" stroke-miterlimit="10" cx="-20.99" cy="37.31" rx="9" ry="4.5"/>
</g>
<g id="Capa_6">
	<g>
		<path fill="#3FA9F5" d="M3.53,12.91V4.94h1.13v3.54h0.02c0.18-0.63,0.47-1.33,0.71-1.91l0.66-1.62h1.27L5.82,8.36l1.56,4.55H6.11
			L5.05,9.76l-0.39,0.86v2.28H3.53z"/>
		<path d="M8,12.91V4.94h1.13v6.8h2.09v1.17H8z"/>
		<path fill="#3FA9F5" d="M12.02,12.91V4.94h1.13v3.54h0.02c0.18-0.63,0.47-1.33,0.71-1.91l0.66-1.62h1.27l-1.49,3.42l1.56,4.55
			H14.6l-1.06-3.14l-0.39,0.86v2.28H12.02z"/>
	</g>
	<path fill="#7AC943" d="M-16.97,22.32"/>
</g>
<g id="Capa_9">
	<path fill="none" d="M-19.97,33.32"/>
	<path fill="none" d="M-20.97,33.32"/>
</g>
<g id="Capa_8">
	<path fill="none" d="M8.03-7.68"/>
	<g>
		<path fill="none" stroke="#1A1A1A" stroke-width="0.5" stroke-miterlimit="10" d="M16.62,13.72c0.89-1.36,1.41-2.98,1.41-4.72
			c0-4.77-3.87-8.64-8.64-8.64C4.61,0.36,0.74,4.23,0.74,9c0,4.77,3.87,8.64,8.64,8.64c1.8,0,3.47-0.55,4.85-1.49l3.48,0.99
			L16.62,13.72z"/>
	</g>
	<g>
	</g>
	<g>
	</g>
	<g>
	</g>
	<g>
	</g>
	<g>
	</g>
	<g>
	</g>
	<g>
	</g>
	<g>
	</g>
	<g>
	</g>
	<g>
	</g>
	<g>
	</g>
	<g>
	</g>
	<g>
	</g>
	<g>
	</g>
	<g>
	</g>
</g>
</svg>
