<?xml version="1.0" encoding="utf-8"?>
<!-- Generator: Adobe Illustrator 24.0.2, SVG Export Plug-In . SVG Version: 6.00 Build 0)  -->
<svg version="1.1" xmlns="http://www.w3.org/2000/svg" xmlns:xlink="http://www.w3.org/1999/xlink" x="0px" y="0px"
	 viewBox="0 0 150 41" style="enable-background:new 0 0 150 41;" xml:space="preserve">
<style type="text/css">
	.st0{opacity:0.98;fill:#109FDC;stroke:#000000;stroke-width:0.25;stroke-miterlimit:10;}
	.st1{fill:#FFFFFF;stroke:#000000;stroke-width:0.25;stroke-miterlimit:10;}
	.st2{fill:#020202;stroke:#000000;stroke-width:0.25;stroke-linecap:round;stroke-linejoin:round;stroke-miterlimit:10;}
	.st3{stroke:#000000;stroke-width:0.25;stroke-linejoin:round;stroke-miterlimit:10;}
	.st4{fill:#FFFFFF;}
	.st5{fill:#D85B5B;}
	.st6{fill:none;stroke:#000000;stroke-width:0.25;stroke-miterlimit:10;}
	.st7{fill:#3FA9F5;}
</style>
<g id="Capa_2">
	<path class="st0" d="M12.74,10.84c-8.02,1.8-8.27,9.06-8.27,9.06c0.88-1.67,3.72-2.81,3.72-2.81c-0.28,3.76-3.31,5.13-3.31,5.13
		c1.56,1.19,3.95-0.78,3.95-0.78c0.06,2.87,2.9,7.48,9.34,7.45c0,0,8.51-0.47,8.51-8.51c0-3.87-1.22-5.19-1.22-5.19
		s0.79-1.89-1.55-3.54c-2.34-1.64-3.98,0.44-3.98,0.44s-1.42-2.05-3.72-2.15C13.9,9.86,12.74,10.84,12.74,10.84z"/>
	<path class="st1" d="M19.93,14.86c0,0-1.04,1.19-3.46,1.13c-2.42-0.06-3.98-2.13-3.98-2.13s-0.85-2.35,1.02-3.47
		c0,0,2.36-0.86,3.88-0.22s2.32,1.65,2.54,1.92L19.93,14.86c0,0,1.04,1.32,3.02,1.47s2.5-1.14,2.5-1.14s0.4-1.12-0.31-2.28
		c-0.71-1.17-2.18-1.88-2.78-1.87c-0.6,0.01-1.86,0.25-2.43,0.94L19.93,14.86z"/>
	<ellipse cx="16.52" cy="13.16" rx="1.35" ry="1.39"/>
	<ellipse cx="22.7" cy="13.75" rx="1.15" ry="1.18"/>
	<path class="st2" d="M19.71,10.59c0,0,0.17-3.41-4.48-2.8C15.23,7.79,19.77,8.32,19.71,10.59z"/>
	<path class="st2" d="M20.81,10.44c0,0,0.84-2.56,3.78-0.94C24.59,9.51,21.4,8.75,20.81,10.44z"/>
	<path class="st2" d="M16.01,28.72v1.54c0,0-3.16,0.06-3.58,1.41c-0.42,1.35,4.1-1.2,4.1-1.2l-0.36-0.21l0-1.52L16.01,28.72z"/>
	<path class="st2" d="M19.26,28.84v1.54c0,0,3.16,0.06,3.58,1.41c0.42,1.35-4.1-1.2-4.1-1.2l0.36-0.21l0-1.52L19.26,28.84z"/>
	<path class="st3" d="M9.35,23.71c0,0-0.85,0.9-1.6,0.9c-0.75,0-0.8-0.52-1.61-0.45s-0.91,1.74-0.91,1.74s0.7-1.27,1.18-1.09
		s0.88,1.09,0.88,1.09S7.79,25.22,9.35,23.71z"/>
	<path class="st3" d="M26.65,20.29c0,0,1.2-0.3,1.56-0.96c0.36-0.66-0.07-0.96,0.39-1.62c0.46-0.67,1.96,0.05,1.96,0.05
		s-1.45-0.01-1.53,0.5c-0.08,0.51,0.53,1.3,0.53,1.3S28.73,19.66,26.65,20.29z"/>
	<g id="Uh_2_">
		<path class="st4" d="M11.84,23.1c0.12,0,11.52,0,11.52,0l0.36-0.65l0.18-1.25l-2.14,0.36l-2.14,0.24h-2.55l-3.27-0.24l-2.38-0.36
			L11.84,23.1z"/>
		<path d="M13.86,25.17c0,0,2.2,0.95,2.43,0.89c0.24-0.06,2.26,0,2.26,0l1.43-0.24l1.31-0.48l1.19-0.83l0.71-0.89l0.12-0.53H12.07
			l0.61,1.07L13.86,25.17z"/>
		<rect x="12.14" y="22.86" width="11.16" height="0.48"/>
		<path class="st5" d="M14.16,25.34c0,0,3.55-3.99,7.22,0c-1.83,0.6-1.83,0.6-1.83,0.6h-2.54L14.16,25.34"/>
		<path d="M17.78,26.3c-1.85,0-4.35-0.45-5.74-2.6c-0.83-1.29-0.85-2.57-0.85-2.62l0-0.3l0.29,0.06c4.13,0.91,7.26,0.86,9.16,0.67
			c2.06-0.21,3.16-0.65,3.17-0.65l0.31-0.13l0.01,0.34c0,0.08,0.05,1.99-1.4,3.5C21.63,25.72,19.96,26.3,17.78,26.3z M11.69,21.38
			c0.06,0.43,0.23,1.26,0.76,2.08c1.02,1.57,2.81,2.37,5.33,2.37c2.04,0,3.6-0.53,4.61-1.59c0.97-1.01,1.2-2.24,1.25-2.82
			c-0.48,0.15-1.46,0.41-2.93,0.57C18.83,22.18,15.74,22.23,11.69,21.38z"/>
	</g>
	<path class="st6" d="M12.35,24.68c0,0,1.22,1.29,2.04,1.37"/>
	<path class="st4" d="M22.41,12.97c0.03-0.01,0.06-0.02,0.09-0.03c0.03-0.01,0.14-0.04,0.17-0.04c0.05,0,0.04,0,0.09,0
		c0.04,0,0.07,0,0.11,0c0.02,0,0.05,0,0.07,0c0.01,0,0.03,0,0.04,0c0.01,0,0.02,0.01,0.03,0.01c0.06,0.05,0.05,0.12-0.01,0.17
		c-0.05,0.05-0.13,0.08-0.21,0.11c-0.09,0.04-0.18,0.07-0.26,0.11c-0.15,0.06-0.31,0.12-0.48,0.12c-0.2,0-0.12-0.17-0.05-0.22
		C22.12,13.12,22.24,13.03,22.41,12.97z"/>
	<path class="st4" d="M16.1,12.22c0.03-0.01,0.06-0.02,0.09-0.03c0.03-0.01,0.14-0.04,0.17-0.04c0.05,0,0.04,0,0.09,0
		c0.04,0,0.07,0,0.11,0c0.02,0,0.05,0,0.07,0c0.01,0,0.03,0,0.04,0c0.01,0,0.02,0.01,0.03,0.01c0.06,0.05,0.05,0.12-0.01,0.17
		c-0.05,0.05-0.13,0.08-0.21,0.11c-0.09,0.04-0.18,0.07-0.26,0.11c-0.15,0.06-0.31,0.12-0.48,0.12c-0.2,0-0.12-0.17-0.05-0.22
		C15.82,12.37,15.94,12.28,16.1,12.22z"/>
</g>
<g id="Capa_1">
	<g>
		<path class="st7" d="M28.82,33.02V9.51h5.52v9.4h0.06l4.07-9.4h5.64L39.1,19.89l5.33,13.13H38.6l-3.04-8.18l-1.22,2.38v5.8H28.82z
			"/>
		<path d="M46.03,33.02V9.51h5.52v18.81h6.74v4.7H46.03z"/>
		<path class="st7" d="M60.17,33.02V9.51h5.52v9.4h0.06l4.07-9.4h5.64l-5.01,10.37l5.33,13.13h-5.83l-3.04-8.18l-1.22,2.38v5.8
			H60.17z"/>
	</g>
	<g>
		<path d="M79.28,24.24v1.02h0.03c0.41-0.8,1.19-1.22,1.86-1.27c0.8-0.05,1.57,0.42,1.85,1.16h0.03c0.45-0.78,1.11-1.16,1.82-1.16
			c1.18,0,2.23,0.64,2.23,1.83v7.19H84.6v-6.27c-0.03-0.41-0.19-0.75-0.66-0.72c-0.44,0.02-0.67,0.27-0.67,0.72v6.27h-2.49v-6.27
			c-0.08-0.38-0.17-0.72-0.6-0.72c-0.5,0-0.71,0.25-0.74,0.72v6.27h-2.49v-8.78H79.28z"/>
		<path d="M90.76,29.04v1.54c0,0.49,0.22,0.89,0.77,0.92c0.92,0.05,0.83-0.78,0.88-1.52h2.48c0.13,2.26-1.1,3.29-3.26,3.32
			c-1.79,0.02-3.35-0.72-3.35-2.73V27c0-2.26,1.43-2.99,3.35-3.01c1.74-0.02,3.35,0.64,3.35,2.54v2.51H90.76z M92.49,27.39v-0.86
			c0-0.31-0.2-0.89-0.85-0.89c-0.71,0-0.88,0.56-0.88,1.17v0.58H92.49z"/>
		<path d="M99.82,26.85c-0.03-0.3-0.03-0.6-0.14-0.83c-0.09-0.22-0.28-0.38-0.69-0.38c-0.49,0-0.83,0.22-0.83,0.74
			c0,0.47,0.39,0.71,0.77,0.89c1.61,0.74,3.35,1.16,3.35,3.24c0,1.96-1.49,2.79-3.32,2.79c-1.97,0-3.35-0.85-3.26-2.96h2.38
			c-0.02,0.3,0.02,0.63,0.16,0.89c0.13,0.25,0.36,0.42,0.74,0.42c0.53,0,0.89-0.27,0.89-0.83c0-0.27-0.13-0.52-0.33-0.67
			c-1-0.53-2.4-0.91-3.18-1.8c-0.42-0.49-0.63-1-0.63-1.65c0-1.9,1.5-2.71,3.24-2.71c1.82,0,3.28,0.91,3.18,2.85H99.82z"/>
		<path d="M106.78,26.85c-0.03-0.3-0.03-0.6-0.14-0.83c-0.09-0.22-0.28-0.38-0.69-0.38c-0.49,0-0.83,0.22-0.83,0.74
			c0,0.47,0.39,0.71,0.77,0.89c1.61,0.74,3.35,1.16,3.35,3.24c0,1.96-1.49,2.79-3.32,2.79c-1.97,0-3.35-0.85-3.26-2.96h2.38
			c-0.02,0.3,0.02,0.63,0.16,0.89c0.13,0.25,0.36,0.42,0.74,0.42c0.53,0,0.89-0.27,0.89-0.83c0-0.27-0.13-0.52-0.33-0.67
			c-1-0.53-2.4-0.91-3.18-1.8c-0.42-0.49-0.63-1-0.63-1.65c0-1.9,1.5-2.71,3.24-2.71c1.82,0,3.28,0.91,3.18,2.85H106.78z"/>
		<path d="M112.52,29.04v1.54c0,0.49,0.22,0.89,0.77,0.92c0.92,0.05,0.83-0.78,0.88-1.52h2.48c0.13,2.26-1.1,3.29-3.26,3.32
			c-1.79,0.02-3.35-0.72-3.35-2.73V27c0-2.26,1.43-2.99,3.35-3.01c1.74-0.02,3.35,0.64,3.35,2.54v2.51H112.52z M114.24,27.39v-0.86
			c0-0.31-0.2-0.89-0.85-0.89c-0.71,0-0.88,0.56-0.88,1.17v0.58H114.24z"/>
		<path d="M120.36,24.24v1.1h0.03c0.24-0.67,0.96-1.35,1.74-1.35c1.17,0,2.22,0.64,2.22,1.83v7.19h-2.49v-6.27
			c-0.03-0.41-0.19-0.75-0.66-0.72c-0.44,0.02-0.67,0.27-0.67,0.72v6.27h-2.49v-8.78H120.36z"/>
		<path d="M128.16,33.5c0,0.61,0.09,0.88,0.82,0.83c0.52-0.05,0.74-0.16,0.75-0.72v-1.77h-0.03c-0.5,0.58-1.1,0.96-1.77,0.96
			c-1.57,0-2.19-1.41-2.19-2.76V27c0-1.38,0.5-3.01,2.15-3.01c0.86,0.03,1.55,0.44,1.97,1.32h0.03v-1.07h2.32v8.95
			c0,2.05-1.47,2.79-3.34,2.79c-1.88,0-3.13-0.45-3.2-2.48H128.16z M128.22,29.82c0,0.49,0.16,0.94,0.74,0.94
			c0.67,0,0.75-0.61,0.75-1.14v-2.43c0-0.6-0.14-1.16-0.82-1.16c-0.64,0-0.69,0.85-0.67,1.3V29.82z"/>
		<path d="M136.03,29.04v1.54c0,0.49,0.22,0.89,0.77,0.92c0.92,0.05,0.83-0.78,0.88-1.52h2.48c0.13,2.26-1.1,3.29-3.26,3.32
			c-1.79,0.02-3.35-0.72-3.35-2.73V27c0-2.26,1.43-2.99,3.35-3.01c1.74-0.02,3.35,0.64,3.35,2.54v2.51H136.03z M137.75,27.39v-0.86
			c0-0.31-0.2-0.89-0.85-0.89c-0.71,0-0.88,0.56-0.88,1.17v0.58H137.75z"/>
		<path d="M143.76,24.24v1.33h0.03c0.28-0.94,0.89-1.58,1.93-1.58v2.82c-0.25-0.05-0.5-0.06-0.75-0.06c-0.71,0-0.99,0.14-1.04,0.86
			v5.41h-2.49v-8.78H143.76z"/>
	</g>
	<g>
	</g>
	<g>
	</g>
	<g>
	</g>
	<g>
	</g>
	<g>
	</g>
	<g>
	</g>
	<g>
	</g>
	<g>
	</g>
	<g>
	</g>
	<g>
	</g>
	<g>
	</g>
	<g>
	</g>
	<g>
	</g>
	<g>
	</g>
	<g>
	</g>
</g>
</svg>
