<?xml version="1.0" encoding="utf-8"?>
<!-- Generator: Adobe Illustrator 24.0.2, SVG Export Plug-In . SVG Version: 6.00 Build 0)  -->
<svg version="1.1" xmlns="http://www.w3.org/2000/svg" xmlns:xlink="http://www.w3.org/1999/xlink" x="0px" y="0px"
	 viewBox="0 0 150 41" style="enable-background:new 0 0 150 41;" xml:space="preserve">
<style type="text/css">
	.st0{display:none;}
	.st1{display:inline;opacity:0.98;fill:#109FDC;stroke:#000000;stroke-width:0.25;stroke-miterlimit:10;}
	.st2{display:inline;fill:#FFFFFF;stroke:#000000;stroke-width:0.25;stroke-miterlimit:10;}
	.st3{display:inline;}
	
		.st4{display:inline;fill:#020202;stroke:#000000;stroke-width:0.25;stroke-linecap:round;stroke-linejoin:round;stroke-miterlimit:10;}
	.st5{display:inline;stroke:#000000;stroke-width:0.25;stroke-linejoin:round;stroke-miterlimit:10;}
	.st6{fill:#FFFFFF;}
	.st7{fill:#D85B5B;}
	.st8{display:inline;fill:none;stroke:#000000;stroke-width:0.25;stroke-miterlimit:10;}
	.st9{display:inline;fill:#FFFFFF;}
	.st10{display:inline;fill:none;}
	.st11{fill:#3BA5DD;}
	.st12{fill:url(#XMLID_9_);stroke:#1C1C1B;stroke-width:0.25;stroke-miterlimit:10;}
	.st13{fill:#82CDF2;stroke:#1C1C1B;stroke-width:0.25;stroke-miterlimit:10;}
	.st14{display:inline;fill:#1C1C1B;}
	.st15{display:inline;fill:#FFFFFF;stroke:#1C1C1B;stroke-width:0.25;stroke-miterlimit:10;}
	.st16{fill:#1C1C1B;}
	.st17{display:inline;fill:#1C1C1A;}
	.st18{fill:url(#XMLID_10_);stroke:#1C1C1B;stroke-width:0.25;stroke-miterlimit:10;}
	.st19{fill:#3FA9F5;stroke:#1C1C1B;stroke-width:0.25;stroke-miterlimit:10;}
	.st20{fill:#FFFFFF;stroke:#1C1C1B;stroke-width:0.25;stroke-miterlimit:10;}
	.st21{fill:#1C1C1A;}
	.st22{fill:#1C1C1A;stroke:#1C1C1A;stroke-width:0.25;stroke-miterlimit:10;}
	.st23{fill:#C1272D;}
	.st24{fill:#3FA9F5;}
</style>
<g id="Capa_2" class="st0">
	<path class="st1" d="M12.74,10.84c-8.02,1.8-8.27,9.06-8.27,9.06c0.88-1.67,3.72-2.81,3.72-2.81c-0.28,3.76-3.31,5.13-3.31,5.13
		c1.56,1.19,3.95-0.78,3.95-0.78c0.06,2.87,2.9,7.48,9.34,7.45c0,0,8.51-0.47,8.51-8.51c0-3.87-1.22-5.19-1.22-5.19
		s0.79-1.89-1.55-3.54c-2.34-1.64-3.98,0.44-3.98,0.44s-1.42-2.05-3.72-2.15C13.9,9.86,12.74,10.84,12.74,10.84z"/>
	<path class="st2" d="M19.93,14.86c0,0-1.04,1.19-3.46,1.13c-2.42-0.06-3.98-2.13-3.98-2.13s-0.85-2.35,1.02-3.47
		c0,0,2.36-0.86,3.88-0.22s2.32,1.65,2.54,1.92L19.93,14.86c0,0,1.04,1.32,3.02,1.47s2.5-1.14,2.5-1.14s0.4-1.12-0.31-2.28
		c-0.71-1.17-2.18-1.88-2.78-1.87c-0.6,0.01-1.86,0.25-2.43,0.94L19.93,14.86z"/>
	<ellipse class="st3" cx="16.52" cy="13.16" rx="1.35" ry="1.39"/>
	<ellipse class="st3" cx="22.7" cy="13.75" rx="1.15" ry="1.18"/>
	<path class="st4" d="M19.71,10.59c0,0,0.17-3.41-4.48-2.8C15.23,7.79,19.77,8.32,19.71,10.59z"/>
	<path class="st4" d="M20.81,10.44c0,0,0.84-2.56,3.78-0.94C24.59,9.51,21.4,8.75,20.81,10.44z"/>
	<path class="st4" d="M16.01,28.72v1.54c0,0-3.16,0.06-3.58,1.41c-0.42,1.35,4.1-1.2,4.1-1.2l-0.36-0.21l0-1.52L16.01,28.72z"/>
	<path class="st4" d="M19.26,28.84v1.54c0,0,3.16,0.06,3.58,1.41c0.42,1.35-4.1-1.2-4.1-1.2l0.36-0.21l0-1.52L19.26,28.84z"/>
	<path class="st5" d="M9.35,23.71c0,0-0.85,0.9-1.6,0.9c-0.75,0-0.8-0.52-1.61-0.45s-0.91,1.74-0.91,1.74s0.7-1.27,1.18-1.09
		s0.88,1.09,0.88,1.09S7.79,25.22,9.35,23.71z"/>
	<path class="st5" d="M26.65,20.29c0,0,1.2-0.3,1.56-0.96c0.36-0.66-0.07-0.96,0.39-1.62c0.46-0.67,1.96,0.05,1.96,0.05
		s-1.45-0.01-1.53,0.5c-0.08,0.51,0.53,1.3,0.53,1.3S28.73,19.66,26.65,20.29z"/>
	<g id="Uh_2_" class="st3">
		<path class="st6" d="M11.84,23.1c0.12,0,11.52,0,11.52,0l0.36-0.65l0.18-1.25l-2.14,0.36l-2.14,0.24h-2.55l-3.27-0.24l-2.38-0.36
			L11.84,23.1z"/>
		<path d="M13.86,25.17c0,0,2.2,0.95,2.43,0.89c0.24-0.06,2.26,0,2.26,0l1.43-0.24l1.31-0.48l1.19-0.83l0.71-0.89l0.12-0.53H12.07
			l0.61,1.07L13.86,25.17z"/>
		<rect x="12.14" y="22.86" width="11.16" height="0.48"/>
		<path class="st7" d="M14.16,25.34c0,0,3.55-3.99,7.22,0c-1.83,0.6-1.83,0.6-1.83,0.6h-2.54L14.16,25.34"/>
		<path d="M17.78,26.3c-1.85,0-4.35-0.45-5.74-2.6c-0.83-1.29-0.85-2.57-0.85-2.62l0-0.3l0.29,0.06c4.13,0.91,7.26,0.86,9.16,0.67
			c2.06-0.21,3.16-0.65,3.17-0.65l0.31-0.13l0.01,0.34c0,0.08,0.05,1.99-1.4,3.5C21.63,25.72,19.96,26.3,17.78,26.3z M11.69,21.38
			c0.06,0.43,0.23,1.26,0.76,2.08c1.02,1.57,2.81,2.37,5.33,2.37c2.04,0,3.6-0.53,4.61-1.59c0.97-1.01,1.2-2.24,1.25-2.82
			c-0.48,0.15-1.46,0.41-2.93,0.57C18.83,22.18,15.74,22.23,11.69,21.38z"/>
	</g>
	<path class="st8" d="M12.35,24.68c0,0,1.22,1.29,2.04,1.37"/>
	<path class="st9" d="M22.41,12.97c0.03-0.01,0.06-0.02,0.09-0.03c0.03-0.01,0.14-0.04,0.17-0.04c0.05,0,0.04,0,0.09,0
		c0.04,0,0.07,0,0.11,0c0.02,0,0.05,0,0.07,0c0.01,0,0.03,0,0.04,0c0.01,0,0.02,0.01,0.03,0.01c0.06,0.05,0.05,0.12-0.01,0.17
		c-0.05,0.05-0.13,0.08-0.21,0.11c-0.09,0.04-0.18,0.07-0.26,0.11c-0.15,0.06-0.31,0.12-0.48,0.12c-0.2,0-0.12-0.17-0.05-0.22
		C22.12,13.12,22.24,13.03,22.41,12.97z"/>
	<path class="st9" d="M16.1,12.22c0.03-0.01,0.06-0.02,0.09-0.03c0.03-0.01,0.14-0.04,0.17-0.04c0.05,0,0.04,0,0.09,0
		c0.04,0,0.07,0,0.11,0c0.02,0,0.05,0,0.07,0c0.01,0,0.03,0,0.04,0c0.01,0,0.02,0.01,0.03,0.01c0.06,0.05,0.05,0.12-0.01,0.17
		c-0.05,0.05-0.13,0.08-0.21,0.11c-0.09,0.04-0.18,0.07-0.26,0.11c-0.15,0.06-0.31,0.12-0.48,0.12c-0.2,0-0.12-0.17-0.05-0.22
		C15.82,12.37,15.94,12.28,16.1,12.22z"/>
</g>
<g id="Capa_3" class="st0">
	<path id="XMLID_4133_" class="st10" d="M19.13,20.09c-2.18-0.86-4.49-1.43-6.92-1.44c-0.03-0.05-0.06-0.11-0.09-0.16
		c0.45-0.63,0.88-1.28,1.36-1.88c0.95-1.21,2.15-1.82,3.74-1.61c1.16,0.15,2.27,0.36,3.21,1.13c0.36,0.29,0.41,0.58,0.18,1.01
		C20.1,18.08,19.65,19.05,19.13,20.09z"/>
	<path id="XMLID_4132_" class="st10" d="M20.36,21.54c-0.02,0.07-0.04,0.14-0.06,0.21c-2.96-1.15-6.07-1.02-9.15-1.17
		c0.05-0.69,0.37-1.05,0.87-0.97c2.01,0.34,4.02,0.66,6.01,1.08C18.84,20.86,19.59,21.25,20.36,21.54z"/>
	<path id="XMLID_4131_" class="st9" d="M11.16,20.57c3.08,0.15,6.2,0.02,9.15,1.17c0.02-0.07,0.04-0.14,0.06-0.21
		c-0.77-0.29-1.52-0.68-2.32-0.85c-1.99-0.42-4.01-0.74-6.01-1.08C11.53,19.52,11.21,19.88,11.16,20.57z"/>
	<path id="XMLID_4110_" class="st10" d="M19.13,20.09c-2.18-0.86-4.49-1.43-6.92-1.44c-0.03-0.05-0.06-0.11-0.09-0.16
		c0.45-0.63,0.88-1.28,1.36-1.88c0.95-1.21,2.15-1.82,3.74-1.61c1.16,0.15,2.27,0.36,3.21,1.13c0.36,0.29,0.41,0.58,0.18,1.01
		C20.1,18.08,19.65,19.05,19.13,20.09z"/>
	<path id="XMLID_4109_" class="st10" d="M20.36,21.54c-0.02,0.07-0.04,0.14-0.06,0.21c-2.96-1.15-6.07-1.02-9.15-1.17
		c0.05-0.69,0.37-1.05,0.87-0.97c2.01,0.34,4.02,0.66,6.01,1.08C18.84,20.86,19.59,21.25,20.36,21.54z"/>
	<g id="XMLID_4105_" class="st3">
		<path id="XMLID_4107_" class="st11" d="M18.08,14.58c-1.12-0.01-3.15-2.91-4.15-2.54l0,0c0,0-5.33,0.52-7.23,2.19
			c-1.9,1.66-2.29,3-2.65,3.93c0,0,1.93-2.82,4.55-1.6c0,0,0.02,1.54-1.42,3.52C5.88,21.88,4,22.05,4,22.05S4.92,23.29,7.99,22
			c0.62,4.41,4.35,7.84,8.91,7.89c5.04,0.07,9.17-4,9.24-9.08c0.02-1.72-0.49-3.59-1.33-5.16c-0.49-0.91-1.09-1.72-1.76-2.35
			C21.44,11.82,20.42,14.61,18.08,14.58z"/>
		
			<radialGradient id="XMLID_9_" cx="-1290.2885" cy="31.5542" r="13.8753" gradientTransform="matrix(0.9999 0.0129 -0.0129 0.9999 1308.4329 6.39)" gradientUnits="userSpaceOnUse">
			<stop  offset="0.0968" style="stop-color:#8ECEE0"/>
			<stop  offset="0.5044" style="stop-color:#8ECEE0"/>
			<stop  offset="0.9355" style="stop-color:#2C4C97"/>
		</radialGradient>
		<path id="XMLID_4106_" class="st12" d="M4.05,18.15C4.05,18.15,4.05,18.16,4.05,18.15C4.05,18.15,4.05,18.15,4.05,18.15z"/>
	</g>
	<g id="XMLID_4102_" class="st3">
		<path id="XMLID_4103_" class="st13" d="M18.08,14.52c-1.12-0.01-2.51-2.49-4.15-2.54l0,0c0,0-5.33,0.52-7.23,2.19
			c-1.9,1.66-2.29,3-2.65,3.93c0,0,1.93-2.82,4.55-1.6c0,0,0.02,1.54-1.42,3.52C5.88,21.82,4,21.99,4,21.99s0.92,1.24,3.99-0.05
			c0.62,4.41,4.35,7.84,8.91,7.89c5.04,0.07,9.17-4,9.24-9.08c0.02-1.72-0.49-3.59-1.33-5.16c-0.49-0.91-1.09-1.72-1.76-2.35
			C21.44,11.76,20.42,14.55,18.08,14.52z"/>
	</g>
	
		<ellipse id="XMLID_4101_" transform="matrix(0.4984 -0.8669 0.8669 0.4984 -1.6947 27.1577)" class="st14" cx="22.62" cy="15.04" rx="2.56" ry="3.45"/>
	
		<ellipse id="XMLID_4100_" transform="matrix(0.4984 -0.8669 0.8669 0.4984 -1.5589 27.0689)" class="st15" cx="22.61" cy="14.88" rx="2.43" ry="3.36"/>
	
		<ellipse id="XMLID_4099_" transform="matrix(0.2589 -0.9659 0.9659 0.2589 -1.8251 26.4456)" class="st14" cx="16.32" cy="14.41" rx="2.72" ry="3.61"/>
	
		<ellipse id="XMLID_4098_" transform="matrix(0.2589 -0.9659 0.9659 0.2589 -1.8251 26.4456)" class="st14" cx="16.32" cy="14.41" rx="2.72" ry="3.61"/>
	<g id="XMLID_4095_" class="st3">
		<path class="st16" d="M7.92,20.78c0.16,0.88,0.25,1.72,0.37,2.61c-0.24-0.39-0.34-0.83-0.41-1.27
			C7.83,21.68,7.81,21.23,7.92,20.78z"/>
	</g>
	<g id="XMLID_4092_" class="st3">
		<path class="st16" d="M8.68,15.42c0.09,0.42,0.07,0.84,0.05,1.26c-0.06,0.41-0.1,0.86-0.36,1.22c0.04-0.21,0.04-0.42,0.06-0.62
			l0.05-0.62C8.53,16.24,8.56,15.83,8.68,15.42z"/>
	</g>
	
		<ellipse id="XMLID_4091_" transform="matrix(0.0129 -0.9999 0.9999 0.0129 6.667 36.3984)" class="st14" cx="21.77" cy="14.82" rx="1.07" ry="1.07"/>
	
		<ellipse id="XMLID_4090_" transform="matrix(0.2589 -0.9659 0.9659 0.2589 -1.5528 26.538)" class="st15" cx="16.52" cy="14.28" rx="2.55" ry="3.45"/>
	
		<ellipse id="XMLID_4089_" transform="matrix(0.0129 -0.9999 0.9999 0.0129 2.3687 30.9421)" class="st14" cx="16.86" cy="14.27" rx="1.13" ry="1.11"/>
	<path id="XMLID_4081_" class="st14" d="M18.71,29.74c0,0-0.07,1.42-0.03,1.46c0.05,0.04,0.11,0.1,0.2,0.11
		c0.09,0.01,3.43-0.02,3.63,1.15c0.08,0.48-1.31,0.66-2.68,0.15c-1.37-0.51-2.14-1.03-1.69-1.27c0.2-0.11,0.2-0.15,0.19-0.24
		c-0.01-0.09-0.03-1.31-0.03-1.31S18.51,29.76,18.71,29.74z"/>
	<path id="XMLID_4078_" class="st14" d="M14.85,29.57c0,0,0.13,1.81,0.09,1.84s-0.11,0.09-0.2,0.1c-0.09,0.01-3.37-0.07-3.6,1.01
		c-0.1,0.45,1.28,0.55,2.68,0.23c1.45-0.34,2.16-0.84,1.83-1.07c-0.18-0.12-0.32-0.05-0.37-0.19c-0.04-0.11,0.03-0.99-0.03-1.84
		C15.25,29.65,15.04,29.62,14.85,29.57z"/>
	<path id="XMLID_4066_" class="st14" d="M25.09,11.16c0,0-2.77-1.97-4.38-0.65c-0.45,0.45-0.41,1.23,0.2,1.01
		C21.52,11.31,21.78,9.94,25.09,11.16z"/>
	<path id="XMLID_4065_" class="st14" d="M14.61,10.13c0,0,3.25-1.09,4.5,0.58c0.39,0.65,0.07,1.38-0.46,1.02
		C18.11,11.37,18.12,9.74,14.61,10.13z"/>
	<path id="XMLID_4063_" class="st9" d="M17.63,14.18c0.04,0.04,0.07,0.14,0.03,0.19c-0.02,0.02-0.04,0.07-0.06,0.08
		c-0.03,0.02-0.09,0.01-0.12,0c-0.08-0.03-0.14-0.11-0.2-0.16c-0.06-0.05-0.12-0.08-0.2-0.09c-0.06,0-0.11,0.03-0.17,0.03
		c-0.08,0.01-0.14-0.03-0.16-0.11c-0.02-0.08,0.03-0.15,0.09-0.2c0.08-0.06,0.17-0.06,0.26-0.05c0.05,0.01,0.12,0,0.17,0.02
		c0.06,0.02,0.14,0.05,0.19,0.08C17.52,14.02,17.6,14.1,17.63,14.18"/>
	<path id="XMLID_4058_" class="st9" d="M22.05,14.51c0.02,0.04,0.04,0.05,0.04,0.1c0,0.05-0.01,0.08-0.05,0.12
		c-0.1,0.1-0.24-0.08-0.35-0.09c-0.08-0.01-0.17,0.05-0.21,0.11c-0.05,0.08-0.13,0.14-0.21,0.04c-0.03-0.04-0.05-0.08-0.05-0.13
		c0-0.07,0.01-0.1,0.04-0.15c0.04-0.07,0.15-0.14,0.23-0.17c0.08-0.02,0.17-0.02,0.25-0.02c0.07,0,0.13,0.04,0.19,0.09
		C21.97,14.43,22.03,14.46,22.05,14.51"/>
	<path id="XMLID_4057_" class="st17" d="M11.95,27.08c0,0,0.32,0.63,0.63,0.34c0.2-0.17,0.12-0.31,0.02-0.49
		c-0.42-0.8,0.29-0.41,0.29-0.42c0.06,0,1.43,1.22,1.65,0.38c0.06,0.02-0.16,0.04-0.59-0.62c-0.34-0.52-0.85-0.97-1.02-1.1
		c0,0-1.08-0.69-2.07-0.06c-1.03,0.66-1.21,1.56-1.09,1.94c0.13,0.42,0.61,0.81,0.61,0.81S10.63,25.99,11.95,27.08z"/>
	<g id="XMLID_973_" class="st3">
		<path id="XMLID_4028_" class="st16" d="M11,18.46c0.16-0.14,0.36-0.43,0.49-0.4c0.29,0.07,0.83,0.8,0.91,0.91
			c1.53,1.88,3.53,2.75,5.92,2.57c1.69-0.13,3.88-0.92,5.32-1.84c0.16-0.1-0.11-0.22-0.15-0.34c-0.01-0.05,0.05-0.12,0.15-0.13
			c0.37,0.15,0.58,0.56,0.76,0.99c-0.01,0.11-0.08,0.13-0.16,0.13c-0.14-0.14-0.2-0.35-0.34-0.49c-0.84,0.41-1.7,0.89-2.13,1.76
			c-0.13,0.26-0.41,0.44-0.61,0.66c-0.49,0.53-1.12,0.99-0.79,1.82c-0.8,0.02-1.54,0.28-2.27,0.37c-0.93,0.12-1.66-0.2-2.39-0.86
			c-1.56-1.38-2.78-2.99-3.81-4.78c-0.19-0.33-0.48-0.78-0.82-0.11C11.06,18.64,11.03,18.55,11,18.46z M13.42,20.48
			c0.54,0.9,1.09,1.64,2.16,1.89c1.67,0.4,3.3,0.64,4.92-0.15c0.54-0.26,1.04-0.55,1.33-1.32C18.87,22.24,16.1,22.31,13.42,20.48z"
			/>
		<path id="XMLID_3376_" class="st16" d="M17.83,25.07c-0.05,0.03-0.81,0.08-1.13,0.02c-0.43-0.08-0.86-0.33-0.87-0.33
			C16.21,25.34,16.93,25.5,17.83,25.07z"/>
		<path id="XMLID_3096_" class="st6" d="M21.84,20.9c-2.97,1.34-5.74,1.41-8.42-0.42c0.54,0.9,1.09,1.64,2.16,1.89
			c1.67,0.4,3.3,0.64,4.92-0.15C21.05,21.96,21.54,21.67,21.84,20.9z"/>
	</g>
	<path id="XMLID_974_" class="st17" d="M13.84,27.33l0.38-0.5c0,0,6.86,0.69,11.64-0.55c0.24-0.19,0.17-2.07-0.08-2.99
		c-0.01-0.1-0.02-0.62,0.26-1.07c0-0.04,1.05,3.68,0.73,4.39C26.4,27.42,20.32,28.79,13.84,27.33z"/>
	<path id="XMLID_975_" class="st17" d="M23.15,25.2l-0.28-0.53c0,0-10.59,2.72-13.84,2.21c-0.02,0.02-0.26-2.3-0.06-3.24
		c0.01-0.1-0.37-0.37-0.67-0.17c0-0.04-0.15,3.06,0.17,3.77C8.84,28.07,14.6,28.42,23.15,25.2z"/>
	<path id="XMLID_976_" class="st17" d="M24.29,26.46c0,0,0.83,0.79,0.3,0.77c-0.5,0.2-0.72,0.23-1.03-0.26
		c-0.13-0.2-0.63-0.43-0.26-1.07c-0.08-0.13,0-0.25-0.05-0.59c-0.14-0.25-0.33-0.15-0.33-0.15l-0.11-0.47c0,0,2.3-1,3.18,0.02
		c0.9,1.04,0.78,1.47,0.61,1.89c-0.18,0.46-0.76,0.85-0.76,0.85S25.41,25.46,24.29,26.46z"/>
</g>
<g id="Capa_4">
	<path id="XMLID_4851_" class="st16" d="M2.14,22.51c-0.02-0.01,6.67,4.78,6.67,4.8c0.28,0.22-0.21,0.56-0.23,0.36
		c-0.12-0.08-7.39-4.34-7.55-4.94c-0.17-0.63,5.16-4.4,5.16-4.39l-0.09,1.11C6.11,19.45,2.16,22.52,2.14,22.51z"/>
	<path id="XMLID_4799_" class="st16" d="M9.54,28.97c-0.08,0.22-0.37,1.94-2.23,2.17c-1.51,0.18-1.83-1.51-1.18-2.64
		c0,0,0.14-0.14,0.34-0.11c0.55,0.08,0.25,1.71,0.78,1.07c0.64-0.93,0.3-0.8-0.78-1.66c-0.17-0.13-0.09-0.66,0.47-0.44
		c0.4,0.15,0.92,0.48,1.93,0.55c0.05,0,0.33-0.49,0.37-0.5C9.81,27.76,9.82,28.19,9.54,28.97z"/>
	<g id="XMLID_4857_">
		<g id="XMLID_4881_">
			<path id="XMLID_4883_" class="st11" d="M10.31,7.58C9.33,8.55,8.47,9.8,7.78,11.19c-1.19,2.4-1.88,5.24-1.77,7.83
				c0.32,7.65,6.69,13.58,14.22,13.26c6.82-0.29,12.25-5.6,12.98-12.28c4.66,1.81,5.97-0.1,5.97-0.1s-2.81-0.16-4.86-2.83
				c-2.24-2.92-2.28-5.24-2.28-5.24c3.87-1.96,6.89,2.2,6.89,2.2c-0.58-1.39-1.23-3.38-4.14-5.8c-2.92-2.42-10.91-2.97-10.91-2.97
				l0,0c-1.51-0.5-4.41,3.94-6.1,4.01C14.29,9.43,12.64,5.28,10.31,7.58z"/>
			
				<radialGradient id="XMLID_10_" cx="-1179.5316" cy="235.4605" r="16.0155" gradientTransform="matrix(-1.2958 0.0551 0.055 1.3036 -1522.9156 -222.5408)" gradientUnits="userSpaceOnUse">
				<stop  offset="0.0968" style="stop-color:#8ECEE0"/>
				<stop  offset="0.5044" style="stop-color:#8ECEE0"/>
				<stop  offset="0.9355" style="stop-color:#2C4C97"/>
			</radialGradient>
			<path id="XMLID_4882_" class="st18" d="M38.94,14.03c0.01,0.01,0.01,0.01,0,0.01C38.94,14.04,38.94,14.04,38.94,14.03z"/>
		</g>
		<g id="XMLID_4877_">
			<path id="XMLID_4878_" class="st19" d="M10.31,7.58C9.33,8.55,8.47,9.8,7.78,11.19c-1.19,2.4-1.88,5.24-1.77,7.83
				c0.32,7.65,6.69,13.58,14.22,13.26c6.82-0.29,12.25-5.6,12.98-12.28c4.66,1.81,5.97-0.1,5.97-0.1s-2.81-0.16-4.86-2.83
				c-2.24-2.92-2.28-5.24-2.28-5.24c3.87-1.96,6.89,2.2,6.89,2.2c-0.58-1.39-1.23-3.38-4.14-5.8c-2.92-2.42-10.91-2.97-10.91-2.97
				l0,0c-2.45,0.16-4.41,3.94-6.1,4.01C14.29,9.43,12.64,5.28,10.31,7.58z"/>
		</g>
		
			<ellipse id="XMLID_4876_" transform="matrix(0.847 -0.5316 0.5316 0.847 -3.7282 7.4137)" class="st16" cx="11.02" cy="10.18" rx="4.82" ry="3.59"/>
		
			<ellipse id="XMLID_4875_" transform="matrix(0.8474 -0.5309 0.5309 0.8474 -3.5956 7.3682)" class="st20" cx="11.02" cy="9.94" rx="5.04" ry="3.65"/>
		
			<ellipse id="XMLID_4874_" transform="matrix(0.9562 -0.2929 0.2929 0.9562 -1.7273 6.3718)" class="st16" cx="20.42" cy="8.95" rx="5.2" ry="3.95"/>
		
			<ellipse id="XMLID_4873_" transform="matrix(0.9562 -0.2929 0.2929 0.9562 -1.7273 6.3718)" class="st16" cx="20.42" cy="8.95" rx="5.2" ry="3.95"/>
		<g id="XMLID_4870_">
			<path class="st16" d="M32.88,21.9c0.19-1.32,0.27-2.61,0.37-3.95c0.15,0.66,0.14,1.33,0.1,2C33.27,20.61,33.16,21.29,32.88,21.9z
				"/>
		</g>
		<g id="XMLID_4867_">
			<path class="st16" d="M31.89,10.13c0.14,0.62,0.2,1.25,0.29,1.87l0.11,0.93c0.05,0.31,0.08,0.62,0.17,0.92
				c-0.35-0.55-0.43-1.2-0.53-1.82C31.88,11.39,31.83,10.76,31.89,10.13z"/>
		</g>
		
			<ellipse id="XMLID_4866_" transform="matrix(0.9996 -0.0276 0.0276 0.9996 -0.2514 0.3423)" class="st16" cx="12.29" cy="9.29" rx="1.6" ry="1.62"/>
		
			<ellipse id="XMLID_4865_" transform="matrix(0.9563 -0.2924 0.2924 0.9563 -1.684 6.2662)" class="st20" cx="20.12" cy="8.77" rx="5.17" ry="3.83"/>
		
			<ellipse id="XMLID_4864_" transform="matrix(0.9995 -0.0322 0.0322 0.9995 -0.2792 0.6283)" class="st16" cx="19.34" cy="8.97" rx="1.67" ry="1.7"/>
		<path id="XMLID_4863_" class="st16" d="M16.92,32.01c0,0-0.09,2.02-0.17,2.07c-0.07,0.05-0.18,0.13-0.31,0.13
			c-0.14,0.01-5.11-0.51-5.57,1.21c-0.19,0.71,1.86,1.18,3.98,0.6s3.33-1.24,2.69-1.66c-0.28-0.19-0.28-0.25-0.26-0.38
			c0.02-0.14,0.24-1.86,0.24-1.86S17.21,32.08,16.92,32.01z"/>
		<path id="XMLID_4862_" class="st16" d="M23.18,31.83c0,0-0.16,1.71-0.09,1.76s0.16,0.13,0.3,0.15c0.13,0.02,5.05-0.08,5.39,1.54
			c0.14,0.67-1.92,0.83-4.01,0.33c-2.16-0.51-3.22-1.28-2.73-1.62c0.26-0.19,0.48-0.07,0.55-0.28c0.06-0.17,0-0.48,0.1-1.75
			C22.68,31.95,22.88,31.9,23.18,31.83z"/>
		<path id="XMLID_4861_" class="st16" d="M7.15,4.45c0,0,4.05-3.09,6.53-1.17c0.69,0.66,0.66,1.83-0.26,1.53
			C12.5,4.51,12.05,2.47,7.15,4.45z"/>
		<path id="XMLID_4860_" class="st16" d="M22.79,2.43c0,0-4.91-1.5-6.7,1.07c-0.55,1-0.05,2.08,0.74,1.52S17.52,2,22.79,2.43z"/>
		<path id="XMLID_4859_" class="st6" d="M20.3,8.11c-0.06-0.07-0.19-0.12-0.27-0.07c-0.04,0.02-0.1,0.05-0.13,0.08
			c-0.03,0.04-0.02,0.14-0.01,0.19c0.03,0.12,0.15,0.23,0.22,0.32c0.07,0.1,0.11,0.19,0.11,0.31c0,0.09-0.06,0.17-0.07,0.25
			c-0.02,0.12,0.03,0.22,0.15,0.26c0.11,0.03,0.23-0.02,0.3-0.11c0.09-0.12,0.06-0.26,0.06-0.4c0-0.07,0-0.15-0.01-0.21
			c-0.02-0.09-0.08-0.18-0.12-0.26C20.46,8.35,20.42,8.17,20.3,8.11"/>
		<path id="XMLID_4858_" class="st6" d="M12.86,8.19c-0.06,0-0.09-0.01-0.16,0.02c-0.07,0.03-0.09,0.08-0.11,0.16
			c-0.05,0.21,0.28,0.25,0.38,0.39c0.07,0.1,0.07,0.25,0.02,0.36c-0.06,0.13-0.08,0.28,0.11,0.31c0.08,0.01,0.14,0,0.21-0.04
			c0.09-0.05,0.12-0.09,0.17-0.17c0.06-0.11,0.06-0.3,0.04-0.43c-0.03-0.12-0.12-0.22-0.18-0.32c-0.06-0.1-0.14-0.16-0.24-0.2
			c-0.06-0.03-0.15-0.08-0.21-0.07"/>
	</g>
	<path id="XMLID_4853_" class="st13" d="M22.88,27.39"/>
	<g id="XMLID_4766_">
		<g>
			<path class="st21" d="M7.85,18.17c1.54,0.97,3.29,1.5,5.07,1.77c1.78,0.25,3.6,0.22,5.37-0.1c1.77-0.3,3.51-0.87,5.05-1.79
				c1.53-0.93,2.88-2.22,3.68-3.85c-0.71,1.68-2.04,3.05-3.59,4c-1.55,0.96-3.3,1.57-5.09,1.9c-1.8,0.29-3.64,0.3-5.44,0.02
				C11.11,19.82,9.34,19.22,7.85,18.17z"/>
		</g>
		<path id="XMLID_4848_" class="st22" d="M25.46,16.36c0,0-1.2,6.96-5.43,9.54c-1.12,0.68-2.44,1.06-4.01,0.92
			c-7.53-0.65-0.5-1.45-3.73-6.9C12.29,19.92,19.88,20.42,25.46,16.36z"/>
		<g id="XMLID_4797_">
			<path class="st21" d="M9.67,26.69c0.24-0.06,0.57-0.22,0.48-0.49c-0.07-0.25-0.36-0.37-0.44-0.67c-0.17-0.64,0.69-1.12,1.19-0.76
				c0.49,0.28,0.87,0.64,1.34,0.89c0.45,0.27,0.94,0.49,1.44,0.65c1.01,0.32,2.07,0.52,3.12,0.46c1.06-0.05,2.1-0.37,3.05-0.86
				c-0.91,0.56-1.95,0.96-3.04,1.04c-1.09,0.1-2.17-0.11-3.21-0.41c-1.04-0.32-1.97-0.99-2.79-1.61c-0.39-0.32-1.09,0.06-0.98,0.56
				c0.03,0.25,0.31,0.4,0.38,0.69C10.27,26.52,9.9,26.64,9.67,26.69z"/>
		</g>
		<path id="XMLID_4796_" class="st6" d="M12.69,20.24c0,0,0.64,1.29,0.7,1.49c0.03-0.03,6.39,0.03,10.88-1.85
			c-0.03-0.06,0.82-2.91,0.92-3.23C25.24,16.69,20.78,20.62,12.69,20.24z"/>
		<g id="XMLID_4776_">
			<g id="XMLID_4795_">
				<path class="st23" d="M12.43,25.51c0,0,0.75-2.23,3.4-0.84c0.56,0.16,0.43-0.44,1.24-0.54c0.92-0.11,1.97-0.35,3.26,1.18
					c0.04,0.05,0.03,0.12-0.01,0.15c-0.49,0.41-3.19,2.36-7.93,0.17L12.43,25.51z"/>
			</g>
			<g id="XMLID_4777_">
				<path class="st23" d="M17.38,24.08c0,0-1-0.12-1.73,1.31"/>
				<path class="st21" d="M17.38,24.08c-0.76,0.17-1.22,0.72-1.73,1.31c0.05-0.19,0.12-0.38,0.22-0.54
					c0.11-0.17,0.23-0.32,0.39-0.46C16.57,24.14,16.99,23.96,17.38,24.08z"/>
			</g>
		</g>
	</g>
	<path id="XMLID_4765_" class="st16" d="M40.28,13.59c-0.02-0.32-0.23-1.84,1.55-2.92c1.37-0.83,2.68,0.01,3.1,0.33
		c0.05,0.04,0.07,0.1,0.06,0.16c-0.02,0.11-0.07,0.28-0.21,0.32c-0.59,0.17-1.8,0.41-2.07,1.29c0,0.01-0.01,0.02-0.01,0.03
		c-0.1,0.91-0.08,1.09,1.26,1.72c0.03,0.01,0.06,0.04,0.07,0.07c0.05,0.1,0.13,0.31-0.24,0.33c-0.47,0.03-1.32-0.24-2.34,0.33
		c-0.01,0-0.07,0.15-0.08,0c-0.01-0.09-0.47,0.26-0.6-0.12c-0.13-0.39-0.26-0.62-0.3-0.68c-0.01-0.01-0.01-0.03-0.02-0.04
		C40.38,14.01,40.29,13.79,40.28,13.59z"/>
	<path id="XMLID_4714_" class="st16" d="M40.19,16.14"/>
	<path id="XMLID_4794_" class="st16" d="M40.82,14.88l-1.61,10.58l-6.98-1.73c0,0-0.14,0.22-0.31,0.6c0.1-0.07,7.18,1.67,7.4,1.84
		c0.31,0.23,0.57-0.03,0.6-0.31c0.23-1.73,1.55-10.55,1.6-10.9C41.51,14.96,41.28,14.94,40.82,14.88z"/>
</g>
<g id="Capa_1">
	<g>
		<path class="st24" d="M41.52,35.8V8.87h6.69v10.77h0.08l4.94-10.77h6.84l-6.08,11.88l6.46,15.04h-7.07l-3.69-9.37l-1.48,2.73v6.64
			H41.52z"/>
		<path d="M62.39,35.8V8.87h6.69v21.54h8.17v5.39H62.39z"/>
		<path class="st24" d="M79.54,35.8V8.87h6.69v10.77h0.08l4.94-10.77h6.84L92,20.75l6.46,15.04H91.4l-3.69-9.37l-1.48,2.73v6.64
			H79.54z"/>
	</g>
	<g>
		<path d="M100.8,28.51v0.84h0.02c0.29-0.66,0.86-1.01,1.35-1.05c0.58-0.04,1.13,0.35,1.34,0.96h0.02c0.33-0.65,0.8-0.96,1.31-0.96
			c0.85,0,1.61,0.53,1.61,1.52v5.97h-1.8v-5.2c-0.02-0.34-0.14-0.62-0.48-0.6c-0.32,0.01-0.49,0.22-0.49,0.6v5.2h-1.8v-5.2
			c-0.06-0.31-0.12-0.6-0.43-0.6c-0.36,0-0.51,0.21-0.53,0.6v5.2h-1.8v-7.28H100.8z"/>
		<path d="M109.1,32.49v1.27c0,0.4,0.16,0.74,0.55,0.77c0.67,0.04,0.6-0.65,0.63-1.26h1.79c0.09,1.87-0.79,2.73-2.35,2.76
			c-1.29,0.01-2.42-0.6-2.42-2.26V30.8c0-1.87,1.03-2.48,2.42-2.5c1.26-0.01,2.42,0.53,2.42,2.11v2.08H109.1z M110.34,31.12v-0.71
			c0-0.26-0.15-0.74-0.61-0.74c-0.51,0-0.63,0.47-0.63,0.97v0.48H110.34z"/>
		<path d="M115.64,30.67c-0.02-0.25-0.02-0.49-0.1-0.69c-0.07-0.18-0.2-0.31-0.5-0.31c-0.35,0-0.6,0.18-0.6,0.61
			c0,0.39,0.28,0.59,0.55,0.74c1.17,0.61,2.42,0.96,2.42,2.69c0,1.63-1.08,2.31-2.4,2.31c-1.43,0-2.42-0.7-2.36-2.46h1.72
			c-0.01,0.25,0.01,0.52,0.11,0.74c0.09,0.21,0.26,0.35,0.53,0.35c0.38,0,0.65-0.22,0.65-0.69c0-0.22-0.09-0.43-0.24-0.56
			c-0.72-0.44-1.73-0.75-2.3-1.5c-0.31-0.4-0.45-0.83-0.45-1.37c0-1.57,1.09-2.25,2.34-2.25c1.31,0,2.37,0.75,2.3,2.37H115.64z"/>
		<path d="M120.67,30.67c-0.02-0.25-0.02-0.49-0.1-0.69c-0.07-0.18-0.2-0.31-0.5-0.31c-0.35,0-0.6,0.18-0.6,0.61
			c0,0.39,0.28,0.59,0.55,0.74c1.17,0.61,2.42,0.96,2.42,2.69c0,1.63-1.08,2.31-2.4,2.31c-1.43,0-2.42-0.7-2.36-2.46h1.72
			c-0.01,0.25,0.01,0.52,0.11,0.74c0.09,0.21,0.26,0.35,0.53,0.35c0.38,0,0.65-0.22,0.65-0.69c0-0.22-0.09-0.43-0.24-0.56
			c-0.72-0.44-1.73-0.75-2.3-1.5c-0.31-0.4-0.45-0.83-0.45-1.37c0-1.57,1.09-2.25,2.34-2.25c1.31,0,2.37,0.75,2.3,2.37H120.67z"/>
		<path d="M124.81,32.49v1.27c0,0.4,0.16,0.74,0.55,0.77c0.67,0.04,0.6-0.65,0.63-1.26h1.79c0.09,1.87-0.79,2.73-2.35,2.76
			c-1.29,0.01-2.42-0.6-2.42-2.26V30.8c0-1.87,1.03-2.48,2.42-2.5c1.26-0.01,2.42,0.53,2.42,2.11v2.08H124.81z M126.06,31.12v-0.71
			c0-0.26-0.15-0.74-0.61-0.74c-0.51,0-0.63,0.47-0.63,0.97v0.48H126.06z"/>
		<path d="M130.48,28.51v0.91h0.02c0.17-0.56,0.69-1.12,1.26-1.12c0.85,0,1.61,0.53,1.61,1.52v5.97h-1.8v-5.2
			c-0.02-0.34-0.14-0.62-0.48-0.6c-0.32,0.01-0.49,0.22-0.49,0.6v5.2h-1.8v-7.28H130.48z"/>
		<path d="M136.12,36.19c0,0.51,0.07,0.73,0.59,0.69c0.37-0.04,0.53-0.13,0.54-0.6v-1.47h-0.02c-0.36,0.48-0.79,0.79-1.28,0.79
			c-1.13,0-1.58-1.17-1.58-2.29V30.8c0-1.14,0.36-2.5,1.55-2.5c0.62,0.03,1.12,0.36,1.43,1.09h0.02v-0.88h1.68v7.42
			c0,1.7-1.06,2.31-2.41,2.31c-1.36,0-2.26-0.38-2.31-2.05H136.12z M136.16,33.14c0,0.4,0.11,0.78,0.53,0.78
			c0.49,0,0.54-0.51,0.54-0.95v-2.01c0-0.49-0.1-0.96-0.59-0.96c-0.46,0-0.5,0.7-0.49,1.08V33.14z"/>
		<path d="M141.8,32.49v1.27c0,0.4,0.16,0.74,0.55,0.77c0.67,0.04,0.6-0.65,0.63-1.26h1.79c0.09,1.87-0.79,2.73-2.35,2.76
			c-1.29,0.01-2.42-0.6-2.42-2.26V30.8c0-1.87,1.03-2.48,2.42-2.5c1.26-0.01,2.42,0.53,2.42,2.11v2.08H141.8z M143.04,31.12v-0.71
			c0-0.26-0.15-0.74-0.61-0.74c-0.51,0-0.63,0.47-0.63,0.97v0.48H143.04z"/>
		<path d="M147.38,28.51v1.11h0.02c0.2-0.78,0.65-1.31,1.39-1.31v2.34c-0.18-0.04-0.36-0.05-0.54-0.05c-0.51,0-0.71,0.12-0.75,0.71
			v4.49h-1.8v-7.28H147.38z"/>
	</g>
	<g>
	</g>
	<g>
	</g>
	<g>
	</g>
	<g>
	</g>
	<g>
	</g>
	<g>
	</g>
	<g>
	</g>
	<g>
	</g>
	<g>
	</g>
	<g>
	</g>
	<g>
	</g>
	<g>
	</g>
	<g>
	</g>
	<g>
	</g>
	<g>
	</g>
</g>
</svg>
